<svg width="199" height="159" viewBox="0 0 199 159" fill="none" xmlns="http://www.w3.org/2000/svg">
<path d="M26.4701 123.73C26.2386 123.334 26.1011 122.89 26.0682 122.432C26.0352 121.974 26.1077 121.515 26.28 121.09C27.28 118.66 30.06 114.03 37.28 113.09C37.28 113.09 106.54 105.96 161.52 113.09C161.52 113.09 170.02 114.09 172.52 121.21C172.661 121.615 172.719 122.044 172.692 122.471C172.664 122.899 172.552 123.317 172.36 123.7C169.43 129.45 153.41 154.92 99.3601 155.75C99.3601 155.78 46.5101 157.44 26.4701 123.73Z" fill="url(#paint0_linear_8_1502)"/>
<path d="M30.5 99.42C30.5 99.42 53.07 92.12 100.21 91.99C100.21 91.99 145.88 91.99 167.66 99.42V89.73C167.66 89.73 169.66 83.89 158.36 82.82C158.36 82.82 101.67 71.01 35.95 83.49C35.1653 83.5263 34.3964 83.723 33.6907 84.068C32.9849 84.413 32.3574 84.8989 31.8467 85.4958C31.336 86.0927 30.9531 86.7878 30.7215 87.5385C30.4898 88.2891 30.4145 89.0792 30.5 89.86V99.42Z" fill="url(#paint1_linear_8_1502)"/>
<path d="M30.49 83.49C30.49 83.49 31.73 81.82 44.55 80.03C44.55 80.03 92.07 72.03 140.84 78.33C140.84 78.33 162.84 80.9 167.38 83.49C167.38 83.49 166.44 79.18 159.38 78.33C159.38 78.33 98.63 66.94 40.13 78.33C40.16 78.33 31 79.39 30.49 83.49Z" fill="url(#paint2_linear_8_1502)"/>
<path d="M28.4601 110.6L27.1001 111.44C27.1001 111.44 23.4301 106.72 27.1001 103.31L28.4601 104.2V110.6Z" fill="url(#paint3_linear_8_1502)"/>
<path d="M169.58 110.6L170.95 111.44C170.95 111.44 174.62 106.72 170.95 103.31L169.58 104.2V110.6Z" fill="url(#paint4_linear_8_1502)"/>
<path d="M30.49 110.65V103.31C30.49 103.31 30.4 101.48 33.7 100.31C33.7 100.31 95.32 86.6901 161.4 99.4601C161.4 99.4601 167.56 100.71 167.79 104.12V110.69C167.79 110.69 100.26 97.0001 30.49 110.65Z" fill="url(#paint5_linear_8_1502)"/>
<path d="M32.92 136.14C32.92 136.14 54.64 160.05 102.09 158.68C102.09 158.68 142.98 158.59 165.67 136.14C165.67 136.14 142.29 159.46 93.28 157.8C93.28 157.8 56.69 157.41 32.92 136.14Z" fill="url(#paint6_linear_8_1502)"/>
<path d="M46.3601 109.94C46.3601 109.94 99.3001 102.3 150.26 109.94C150.26 109.94 100.4 105.07 46.3601 109.94Z" fill="url(#paint7_linear_8_1502)"/>
<path d="M102.86 1.30001C101.695 0.609167 100.365 0.244629 99.01 0.244629C97.6553 0.244629 96.3255 0.609167 95.16 1.30001L49.29 23.24L72.83 72C89.3451 70.8681 105.919 70.8982 122.43 72.09L152.2 24.89L102.86 1.30001Z" fill="url(#paint8_linear_8_1502)"/>
<path d="M178.54 37.5499L153.62 25.6099L124.2 72.2599C141.75 73.5699 154.83 75.7099 159.7 76.5899L184.64 41.9999C182.898 40.1534 180.83 38.6447 178.54 37.5499Z" fill="url(#paint9_linear_8_1502)"/>
<path d="M197.79 73.93L186.91 45.52C186.58 44.7294 186.157 43.9808 185.65 43.29L161.4 76.9L161.81 76.98C163.896 77.1178 165.863 78.0021 167.35 79.4712C168.838 80.9403 169.746 82.8958 169.91 84.98V96.88C171.636 96.6139 173.302 96.0452 174.83 95.2L196.07 81.53C199.52 79.11 197.79 73.93 197.79 73.93Z" fill="url(#paint10_linear_8_1502)"/>
<path d="M18.82 37.8199C17.6006 38.2453 16.4688 38.8891 15.48 39.7199L37.23 76.7999L47.76 74.9999C55.6 73.6799 63.45 72.7699 71.16 72.1699L47.88 23.9199L18.82 37.8199Z" fill="url(#paint11_linear_8_1502)"/>
<path d="M11.2501 45.9101L1.43005 71.1401C-2.28995 79.9001 2.75005 81.7601 2.75005 81.7601L18.6901 92.2501C25.9901 97.8301 28.3801 96.7701 28.3801 96.7701L28.51 83.4901C28.5797 82.3688 28.9522 81.2874 29.588 80.3611C30.2237 79.4348 31.0988 78.6983 32.12 78.2301C33.1914 77.6606 34.3509 77.2752 35.5501 77.0901L14.31 40.8201C12.9555 42.2917 11.9144 44.0235 11.2501 45.9101Z" fill="url(#paint12_linear_8_1502)"/>
<path d="M74.5901 29.91C74.5901 29.91 78.5901 32.25 85.3501 28.56C85.3501 28.56 98.9101 19.85 112.05 24.12C112.05 24.12 118.7 26.38 121.91 29.34C122.114 29.5353 122.37 29.6661 122.648 29.7159C122.925 29.7657 123.211 29.7323 123.47 29.62C123.594 29.5268 123.695 29.406 123.765 29.2672C123.834 29.1283 123.87 28.9752 123.87 28.82C123.87 28.6647 123.834 28.5116 123.765 28.3728C123.695 28.2339 123.594 28.1131 123.47 28.02C123.47 28.02 112.91 14.14 93.5701 21.12C89.721 22.7734 85.9861 24.6809 82.3901 26.83C82.3901 26.83 78.8201 28.6 76.3101 27.83C76.3101 27.83 74.8401 26.76 74.0601 27.91C73.9546 28.0737 73.8845 28.2575 73.8541 28.4499C73.8237 28.6422 73.8337 28.8388 73.8836 29.027C73.9335 29.2152 74.0221 29.3909 74.1437 29.543C74.2654 29.695 74.4174 29.82 74.5901 29.91Z" fill="white"/>
<path d="M127.17 36.0701C124.4 35.3705 121.717 34.3643 119.17 33.0701C119.17 33.0701 107.54 23.9901 94.12 28.4701C89.8613 30.1634 85.7758 32.2631 81.92 34.7401C81.92 34.7401 73.92 39.4201 70.72 35.8101C70.72 35.8101 69.44 40.0301 76.53 39.4701C78.4482 39.3216 80.3511 39.0173 82.22 38.5601C82.22 38.5601 90.59 47.8301 106.22 46.5601L102.76 50.7801C102.76 50.7801 99.01 56.5901 97.46 57.9801C97.46 57.9801 91.57 63.7201 85.32 62.5601C83.9529 62.4133 82.6957 61.743 81.8121 60.6897C80.9284 59.6364 80.4868 58.2818 80.58 56.9101C80.58 56.9101 80.27 52.4701 83.24 51.5701C84.1134 51.3081 85.055 51.4015 85.86 51.8301C86.4033 52.1112 86.8526 52.5448 87.1528 53.0778C87.4531 53.6107 87.5911 54.2198 87.55 54.8301C87.5229 55.2003 87.3754 55.5515 87.13 55.8301C87.0687 55.8949 86.994 55.9455 86.9111 55.9783C86.8281 56.0112 86.739 56.0254 86.65 56.0201C86.1391 55.9506 85.6193 56.0388 85.16 56.2729C84.7007 56.507 84.3239 56.8759 84.08 57.3301C83.8566 57.8148 83.8103 58.3624 83.9492 58.8777C84.088 59.393 84.4033 59.8433 84.84 60.1501C85.2472 60.4014 85.7164 60.5345 86.195 60.5345C86.6736 60.5345 87.1427 60.4014 87.55 60.1501C88.1763 59.7944 88.7145 59.3022 89.1248 58.7102C89.5351 58.1182 89.8068 57.4414 89.92 56.7301C90.0933 55.7544 89.9989 54.75 89.6467 53.8237C89.2945 52.8975 88.6978 52.0841 87.92 51.4701C86.59 50.4701 84.44 49.7201 81.17 50.8801C81.17 50.8801 76.04 53.0301 78.06 60.0501C78.06 60.0501 80.06 67.0501 89.2 65.2301C94.1151 64.0595 98.4327 61.1324 101.34 57.0001C101.34 57.0001 105.41 50.3701 108.62 48.1401C108.62 48.1401 112.87 44.5801 113.97 43.9701C111.083 49.5408 109.38 55.649 108.97 61.9101C108.97 61.9101 108.66 65.0701 110.81 62.3101C110.81 62.3101 117.39 52.8301 119.1 49.0101C119.1 49.0101 120.02 47.8301 118.66 47.5201L115.72 47.1301C115.72 47.1301 114.93 47.2601 115.63 46.2101L118.31 42.0001C118.7 41.44 119.227 40.9891 119.84 40.6901L127.17 37.4401C127.17 37.4401 129.32 36.7401 127.17 36.0701ZM109.1 41.7801C96.02 46.0301 86.1 36.7801 86.1 36.7801C90.18 33.1801 97.81 31.3401 97.81 31.3401L98.35 31.2301C97.4101 32.0145 96.7328 33.0676 96.4087 34.2481C96.0846 35.4286 96.1294 36.68 96.5371 37.8343C96.9447 38.9886 97.6957 39.9906 98.6892 40.7058C99.6827 41.4211 100.871 41.8153 102.095 41.8356C103.319 41.8559 104.52 41.5013 105.537 40.8194C106.553 40.1375 107.337 39.1609 107.783 38.0208C108.229 36.8806 108.315 35.6314 108.03 34.4408C107.745 33.2502 107.103 32.1752 106.19 31.3601C110.494 32.2997 114.548 34.1475 118.08 36.7801C115.72 39.3701 109.1 41.7801 109.1 41.7801Z" fill="white"/>
<path d="M90 110.1L76.59 153.77C71.649 152.871 66.7745 151.638 62 150.08L77 110.49C81.13 110.34 85.5 110.2 90 110.1Z" fill="#244573"/>
<path d="M121.14 153.55C120.92 153.69 120.67 153.83 120.42 153.96C113.335 155.094 106.175 155.699 99.0001 155.77C91.4765 155.826 83.965 155.156 76.5701 153.77L90.0001 110.1C95.5101 109.98 101.25 109.93 107.15 109.96L121.14 153.55Z" fill="#325281"/>
<path d="M120.42 154C120.67 153.87 120.92 153.73 121.14 153.59L107.14 110C112.36 110 117.68 110.09 123.03 110.27L136.94 150C131.552 151.782 126.027 153.12 120.42 154Z" fill="#264A7C"/>
<defs>
<linearGradient id="paint0_linear_8_1502" x1="26.0601" y1="132.87" x2="172.72" y2="132.87" gradientUnits="userSpaceOnUse">
<stop stop-color="#15345D"/>
<stop offset="1" stop-color="#1D4682"/>
</linearGradient>
<linearGradient id="paint1_linear_8_1502" x1="30.49" y1="88.59" x2="167.79" y2="88.59" gradientUnits="userSpaceOnUse">
<stop stop-color="#15345D"/>
<stop offset="1" stop-color="#1D4682"/>
</linearGradient>
<linearGradient id="paint2_linear_8_1502" x1="30.49" y1="78.38" x2="167.38" y2="78.38" gradientUnits="userSpaceOnUse">
<stop stop-color="#15345D"/>
<stop offset="1" stop-color="#1D4682"/>
</linearGradient>
<linearGradient id="paint3_linear_8_1502" x1="25.4701" y1="107.37" x2="28.4601" y2="107.37" gradientUnits="userSpaceOnUse">
<stop stop-color="#15345D"/>
<stop offset="1" stop-color="#1D4682"/>
</linearGradient>
<linearGradient id="paint4_linear_8_1502" x1="169.58" y1="107.37" x2="172.58" y2="107.37" gradientUnits="userSpaceOnUse">
<stop stop-color="#15345D"/>
<stop offset="1" stop-color="#1D4682"/>
</linearGradient>
<linearGradient id="paint5_linear_8_1502" x1="30.49" y1="102.3" x2="167.79" y2="102.3" gradientUnits="userSpaceOnUse">
<stop stop-color="#15345D"/>
<stop offset="1" stop-color="#1D4682"/>
</linearGradient>
<linearGradient id="paint6_linear_8_1502" x1="32.92" y1="147.44" x2="165.67" y2="147.44" gradientUnits="userSpaceOnUse">
<stop stop-color="#15345D"/>
<stop offset="1" stop-color="#1D4682"/>
</linearGradient>
<linearGradient id="paint7_linear_8_1502" x1="46.3601" y1="108.24" x2="150.26" y2="108.24" gradientUnits="userSpaceOnUse">
<stop stop-color="#15345D"/>
<stop offset="1" stop-color="#1D4682"/>
</linearGradient>
<linearGradient id="paint8_linear_8_1502" x1="49.29" y1="36.19" x2="152.2" y2="36.19" gradientUnits="userSpaceOnUse">
<stop stop-color="#15345D"/>
<stop offset="1" stop-color="#1D4682"/>
</linearGradient>
<linearGradient id="paint9_linear_8_1502" x1="124.2" y1="51.0999" x2="184.64" y2="51.0999" gradientUnits="userSpaceOnUse">
<stop stop-color="#15345D"/>
<stop offset="1" stop-color="#1D4682"/>
</linearGradient>
<linearGradient id="paint10_linear_8_1502" x1="161.4" y1="70.07" x2="198.23" y2="70.07" gradientUnits="userSpaceOnUse">
<stop stop-color="#15345D"/>
<stop offset="1" stop-color="#1D4682"/>
</linearGradient>
<linearGradient id="paint11_linear_8_1502" x1="15.48" y1="50.3599" x2="71.16" y2="50.3599" gradientUnits="userSpaceOnUse">
<stop stop-color="#15345D"/>
<stop offset="1" stop-color="#1D4682"/>
</linearGradient>
<linearGradient id="paint12_linear_8_1502" x1="0.0600514" y1="68.8301" x2="35.5801" y2="68.8301" gradientUnits="userSpaceOnUse">
<stop stop-color="#15345D"/>
<stop offset="1" stop-color="#1D4682"/>
</linearGradient>
</defs>
</svg>