<svg width="90" height="73" viewBox="0 0 90 73" fill="none" xmlns="http://www.w3.org/2000/svg">
<path d="M12.0637 56.5501C11.9588 56.3705 11.8964 56.1693 11.8815 55.9618C11.8666 55.7544 11.8994 55.5463 11.9775 55.3536C12.4308 54.2522 13.6907 52.1538 16.9629 51.7278C16.9629 51.7278 48.3528 48.4964 73.2707 51.7278C73.2707 51.7278 77.1231 52.181 78.2561 55.408C78.32 55.5914 78.3465 55.7857 78.334 55.9795C78.3216 56.1734 78.2704 56.3627 78.1836 56.5365C76.8557 59.1425 69.5951 70.6859 45.0987 71.0621C45.0987 71.0757 21.1461 71.828 12.0637 56.5501Z" fill="url(#paint0_linear_40_1320)"/>
<path d="M13.8899 45.5323C13.8899 45.5323 24.1191 42.2238 45.4838 42.1649C45.4838 42.1649 66.1822 42.1649 76.0533 45.5323V41.1407C76.0533 41.1407 76.9598 38.4939 71.8384 38.0089C71.8384 38.0089 46.1455 32.6564 16.36 38.3126C16.0043 38.329 15.6559 38.4182 15.336 38.5745C15.0162 38.7309 14.7317 38.9511 14.5003 39.2216C14.2688 39.4921 14.0953 39.8072 13.9903 40.1474C13.8853 40.4876 13.8512 40.8457 13.8899 41.1996V45.5323Z" fill="url(#paint1_linear_40_1320)"/>
<path d="M13.8855 38.3125C13.8855 38.3125 14.4475 37.5557 20.2578 36.7444C20.2578 36.7444 41.7947 33.1187 63.8981 35.9739C63.8981 35.9739 73.8689 37.1387 75.9265 38.3125C75.9265 38.3125 75.5005 36.3592 72.3008 35.9739C72.3008 35.9739 44.7678 30.8118 18.2546 35.9739C18.2682 35.9739 14.1167 36.4543 13.8855 38.3125Z" fill="url(#paint2_linear_40_1320)"/>
<path d="M12.9655 50.5993L12.3491 50.98C12.3491 50.98 10.6858 48.8408 12.3491 47.2953L12.9655 47.6987V50.5993Z" fill="url(#paint3_linear_40_1320)"/>
<path d="M76.9236 50.5993L77.5445 50.98C77.5445 50.98 79.2078 48.8408 77.5445 47.2953L76.9236 47.6987V50.5993Z" fill="url(#paint4_linear_40_1320)"/>
<path d="M13.8856 50.6219V47.2953C13.8856 47.2953 13.8448 46.4659 15.3405 45.9357C15.3405 45.9357 43.2678 39.7628 73.2164 45.5504C73.2164 45.5504 76.0082 46.117 76.1125 47.6624V50.6401C76.1125 50.6401 45.5067 44.4355 13.8856 50.6219Z" fill="url(#paint5_linear_40_1320)"/>
<path d="M14.9867 62.1745C14.9867 62.1745 24.8306 73.0109 46.3358 72.39C46.3358 72.39 64.8679 72.3492 75.1514 62.1745C75.1514 62.1745 64.5552 72.7435 42.343 71.9912C42.343 71.9912 25.7597 71.8144 14.9867 62.1745Z" fill="url(#paint6_linear_40_1320)"/>
<path d="M21.0784 50.3002C21.0784 50.3002 45.0718 46.8376 68.1677 50.3002C68.1677 50.3002 45.5703 48.093 21.0784 50.3002Z" fill="url(#paint7_linear_40_1320)"/>
<path d="M46.685 1.06258C46.1568 0.749474 45.5541 0.584259 44.9401 0.584259C44.3261 0.584259 43.7234 0.749474 43.1952 1.06258L22.4061 11.0062L33.0748 33.1051C40.5597 32.5921 48.0714 32.6057 55.5544 33.1459L69.0468 11.754L46.685 1.06258Z" fill="url(#paint8_linear_40_1320)"/>
<path d="M80.9846 17.4917L69.6904 12.0803L56.3567 33.2229C64.3107 33.8166 70.2388 34.7865 72.446 35.1853L83.7492 19.5085C82.9598 18.6717 82.0225 17.9879 80.9846 17.4917Z" fill="url(#paint9_linear_40_1320)"/>
<path d="M89.7088 33.9798L84.7778 21.1039C84.6282 20.7455 84.4365 20.4062 84.2068 20.0932L73.2162 35.3258L73.4021 35.3621C74.3475 35.4245 75.2388 35.8253 75.913 36.4911C76.5871 37.157 76.9989 38.0432 77.0731 38.9878V44.3811C77.8554 44.2605 78.6103 44.0028 79.3029 43.6197L88.9293 37.4242C90.4929 36.3275 89.7088 33.9798 89.7088 33.9798Z" fill="url(#paint10_linear_40_1320)"/>
<path d="M8.59655 17.6141C8.04389 17.8069 7.53094 18.0987 7.0828 18.4752L16.9403 35.2805L21.7127 34.4647C25.2659 33.8665 28.8237 33.454 32.318 33.1821L21.7671 11.3143L8.59655 17.6141Z" fill="url(#paint11_linear_40_1320)"/>
<path d="M5.16563 21.2806L0.715033 32.7153C-0.970938 36.6855 1.31328 37.5285 1.31328 37.5285L8.53758 42.2828C11.8461 44.8117 12.9293 44.3313 12.9293 44.3313L12.9882 38.3126C13.0197 37.8044 13.1886 37.3143 13.4767 36.8944C13.7648 36.4746 14.1614 36.1408 14.6243 35.9286C15.1099 35.6705 15.6354 35.4959 16.1788 35.412L6.55248 18.9738C5.93857 19.6407 5.46672 20.4256 5.16563 21.2806Z" fill="url(#paint12_linear_40_1320)"/>
<path d="M33.8723 14.0292C33.8723 14.0292 35.6852 15.0897 38.7489 13.4173C38.7489 13.4173 44.8946 9.46979 50.8498 11.405C50.8498 11.405 53.8637 12.4293 55.3186 13.7708C55.4108 13.8593 55.5271 13.9186 55.6529 13.9412C55.7787 13.9638 55.9084 13.9487 56.0256 13.8977C56.0819 13.8555 56.1276 13.8008 56.159 13.7378C56.1905 13.6749 56.2069 13.6055 56.2069 13.5352C56.2069 13.4648 56.1905 13.3954 56.159 13.3325C56.1276 13.2695 56.0819 13.2148 56.0256 13.1726C56.0256 13.1726 51.2396 6.88192 42.4744 10.0454C40.7299 10.7947 39.0372 11.6593 37.4074 12.6333C37.4074 12.6333 35.7894 13.4354 34.6518 13.0865C34.6518 13.0865 33.9856 12.6015 33.6321 13.1227C33.5843 13.1969 33.5525 13.2802 33.5387 13.3674C33.5249 13.4546 33.5295 13.5437 33.5521 13.629C33.5747 13.7143 33.6149 13.7939 33.67 13.8628C33.7251 13.9317 33.794 13.9884 33.8723 14.0292Z" fill="#1B4177"/>
<path d="M57.7025 16.821C56.4472 16.5039 55.2311 16.0479 54.0768 15.4613C54.0768 15.4613 48.8059 11.3461 42.7237 13.3765C40.7936 14.1439 38.9419 15.0955 37.1944 16.2182C37.1944 16.2182 33.5687 18.3392 32.1184 16.7031C32.1184 16.7031 31.5383 18.6157 34.7516 18.3619C35.6209 18.2946 36.4834 18.1567 37.3304 17.9495C37.3304 17.9495 41.1238 22.1508 48.2076 21.5752L46.6395 23.4878C46.6395 23.4878 44.9399 26.121 44.2374 26.751C44.2374 26.751 41.568 29.3524 38.7354 28.8267C38.1158 28.7602 37.546 28.4564 37.1455 27.979C36.745 27.5016 36.5449 26.8877 36.5871 26.266C36.5871 26.266 36.4466 24.2537 37.7927 23.8458C38.1885 23.7271 38.6153 23.7694 38.9801 23.9637C39.2263 24.0911 39.43 24.2876 39.566 24.5291C39.7021 24.7707 39.7647 25.0467 39.746 25.3233C39.7338 25.4911 39.6669 25.6503 39.5557 25.7765C39.5279 25.8059 39.4941 25.8289 39.4565 25.8437C39.4189 25.8586 39.3785 25.8651 39.3381 25.8627C39.1066 25.8312 38.871 25.8711 38.6628 25.9773C38.4547 26.0834 38.2839 26.2505 38.1734 26.4564C38.0721 26.676 38.0511 26.9243 38.1141 27.1578C38.177 27.3913 38.3199 27.5954 38.5178 27.7344C38.7024 27.8484 38.915 27.9087 39.1319 27.9087C39.3488 27.9087 39.5615 27.8484 39.746 27.7344C40.0299 27.5732 40.2738 27.3502 40.4598 27.0819C40.6457 26.8136 40.7689 26.5068 40.8202 26.1844C40.8987 25.7423 40.8559 25.287 40.6963 24.8672C40.5367 24.4474 40.2662 24.0788 39.9137 23.8005C39.3109 23.3473 38.3365 23.0074 36.8545 23.5331C36.8545 23.5331 34.5295 24.5075 35.445 27.6891C35.445 27.6891 36.3514 30.8616 40.4938 30.0368C42.7215 29.5063 44.6783 28.1797 45.9959 26.3068C45.9959 26.3068 47.8405 23.302 49.2953 22.2913C49.2953 22.2913 51.2215 20.6778 51.72 20.4014C50.4116 22.9261 49.64 25.6945 49.454 28.5321C49.454 28.5321 49.3135 29.9643 50.2879 28.7134C50.2879 28.7134 53.2701 24.4169 54.0451 22.6856C54.0451 22.6856 54.462 22.1508 53.8456 22.0103L52.5132 21.8335C52.5132 21.8335 52.1551 21.8925 52.4724 21.4166L53.687 19.5085C53.8637 19.2547 54.1024 19.0503 54.3804 18.9148L57.7025 17.4419C57.7025 17.4419 58.6769 17.1246 57.7025 16.821ZM49.5129 19.4088C43.5848 21.335 39.0889 17.1427 39.0889 17.1427C40.938 15.5112 44.396 14.6772 44.396 14.6772L44.6408 14.6274C44.2148 14.9829 43.9078 15.4602 43.761 15.9952C43.6141 16.5302 43.6344 17.0974 43.8191 17.6205C44.0039 18.1437 44.3442 18.5978 44.7945 18.922C45.2448 19.2461 45.7834 19.4248 46.3382 19.434C46.8929 19.4432 47.4372 19.2825 47.898 18.9734C48.3588 18.6644 48.714 18.2218 48.916 17.7051C49.118 17.1883 49.157 16.6222 49.028 16.0826C48.8989 15.543 48.6079 15.0557 48.194 14.6863C50.1447 15.1121 51.9819 15.9496 53.5828 17.1427C52.5132 18.3166 49.5129 19.4088 49.5129 19.4088Z" fill="#1B4177"/>
<path d="M40.8566 50.3727L34.7789 70.1647C32.5396 69.7571 30.3304 69.1983 28.1665 68.4923L34.9648 50.5494C36.8365 50.4815 38.8171 50.418 40.8566 50.3727Z" fill="#F9F9F9"/>
<path d="M54.9697 70.065C54.8699 70.1284 54.7566 70.1919 54.6433 70.2508C51.4322 70.7646 48.1872 71.0388 44.9354 71.0711C41.5256 71.0965 38.1213 70.793 34.7697 70.1647L40.8564 50.3727C43.3537 50.3183 45.9551 50.2956 48.6291 50.3092L54.9697 70.065Z" fill="#F9F9F9"/>
<path d="M54.6435 70.269C54.7568 70.21 54.8701 70.1466 54.9698 70.0831L48.6247 50.3274C50.9905 50.3274 53.4016 50.3682 55.8264 50.4497L62.1306 68.4561C59.6886 69.2638 57.1845 69.8701 54.6435 70.269Z" fill="#F9F9F9"/>
<defs>
<linearGradient id="paint0_linear_40_1320" x1="11.8778" y1="60.6925" x2="78.3468" y2="60.6925" gradientUnits="userSpaceOnUse">
<stop stop-color="#E4E4E4"/>
<stop offset="1" stop-color="white"/>
</linearGradient>
<linearGradient id="paint1_linear_40_1320" x1="13.8854" y1="40.624" x2="76.1122" y2="40.624" gradientUnits="userSpaceOnUse">
<stop stop-color="white"/>
<stop offset="1" stop-color="#E1E1E1"/>
<stop offset="1.0001" stop-color="#E6E6E6"/>
</linearGradient>
<linearGradient id="paint2_linear_40_1320" x1="13.8855" y1="35.9966" x2="75.9265" y2="35.9966" gradientUnits="userSpaceOnUse">
<stop stop-color="#E8E8E8"/>
<stop offset="1" stop-color="white"/>
</linearGradient>
<linearGradient id="paint3_linear_40_1320" x1="11.6104" y1="49.1354" x2="12.9655" y2="49.1354" gradientUnits="userSpaceOnUse">
<stop stop-color="#E7E7E7"/>
<stop offset="1" stop-color="white"/>
</linearGradient>
<linearGradient id="paint4_linear_40_1320" x1="76.9236" y1="49.1354" x2="78.2832" y2="49.1354" gradientUnits="userSpaceOnUse">
<stop stop-color="#DFDFDF"/>
<stop offset="1" stop-color="white"/>
</linearGradient>
<linearGradient id="paint5_linear_40_1320" x1="13.8856" y1="46.8376" x2="76.1125" y2="46.8376" gradientUnits="userSpaceOnUse">
<stop stop-color="#DEDEDE"/>
<stop offset="1" stop-color="white"/>
</linearGradient>
<linearGradient id="paint6_linear_40_1320" x1="14.9867" y1="67.2959" x2="75.1514" y2="67.2959" gradientUnits="userSpaceOnUse">
<stop stop-color="#DFDFDF"/>
<stop offset="1" stop-color="white"/>
</linearGradient>
<linearGradient id="paint7_linear_40_1320" x1="21.0784" y1="49.5297" x2="68.1677" y2="49.5297" gradientUnits="userSpaceOnUse">
<stop stop-color="#DDDDDD"/>
<stop offset="1" stop-color="white"/>
</linearGradient>
<linearGradient id="paint8_linear_40_1320" x1="22.4061" y1="16.8754" x2="69.0468" y2="16.8754" gradientUnits="userSpaceOnUse">
<stop stop-color="#DFDFDF"/>
<stop offset="1" stop-color="white"/>
</linearGradient>
<linearGradient id="paint9_linear_40_1320" x1="56.3567" y1="23.6328" x2="83.7492" y2="23.6328" gradientUnits="userSpaceOnUse">
<stop stop-color="#DCDCDC"/>
<stop offset="1" stop-color="white"/>
</linearGradient>
<linearGradient id="paint10_linear_40_1320" x1="73.2162" y1="32.2304" x2="89.9083" y2="32.2304" gradientUnits="userSpaceOnUse">
<stop stop-color="#D7D7D7"/>
<stop offset="0.875" stop-color="#E2E2E2"/>
<stop offset="1.0001" stop-color="#EFEFEF"/>
</linearGradient>
<linearGradient id="paint11_linear_40_1320" x1="7.0828" y1="23.2974" x2="32.318" y2="23.2974" gradientUnits="userSpaceOnUse">
<stop stop-color="white"/>
<stop offset="1" stop-color="#E4E4E4"/>
</linearGradient>
<linearGradient id="paint12_linear_40_1320" x1="0.0941243" y1="31.6684" x2="16.1924" y2="31.6684" gradientUnits="userSpaceOnUse">
<stop stop-color="white"/>
<stop offset="1" stop-color="#EEEEEE"/>
</linearGradient>
</defs>
</svg>
